IKResults
version=1
nRows=11
nColumns=40
inDegrees=yes

Units are S.I. units (second, meters, Newtons, ...)
Angles are in degrees.

endheader
time	pelvis_tilt	pelvis_list	pelvis_rotation	pelvis_tx	pelvis_ty	pelvis_tz	hip_flexion_r	hip_adduction_r	hip_rotation_r	knee_angle_r	knee_angle_r_beta	ankle_angle_r	subtalar_angle_r	mtp_angle_r	hip_flexion_l	hip_adduction_l	hip_rotation_l	knee_angle_l	knee_angle_l_beta	ankle_angle_l	subtalar_angle_l	mtp_angle_l	lumbar_extension	lumbar_bending	lumbar_rotation	arm_flex_r	arm_add_r	arm_rot_r	elbow_flex_r	pro_sup_r	wrist_flex_r	wrist_dev_r	arm_flex_l	arm_add_l	arm_rot_l	elbow_flex_l	pro_sup_l	wrist_flex_l	wrist_dev_l
      0.55000000	     17.45333590	      2.95278300	     -2.96789868	     -0.06500482	      0.94233590	     -1.04643360	     -5.64806813	     -4.73169286	     -3.45679228	    -63.16429701	     -1.10242495	     -8.32828310	    -12.68000782	      8.28607662	     -7.68083953	     -4.89488251	     13.74191503	    -20.79226951	     -0.36289356	      9.97315487	      7.30123787	     -5.24881884	    -24.65462958	     -5.67593266	     -1.24104212	     -6.83286298	    -10.65008431	     -0.07444242	     39.19597979	     89.95437384	      0.00000000	      0.00000000	     -4.53802948	     10.52654404	     10.27656320	     13.37838009	     89.95437384	      0.00000000	      0.00000000
      0.56000000	     17.47135350	      2.39197183	     -2.62035416	     -0.05118471	      0.94433897	     -1.04756354	     -4.20860868	     -3.96333853	     -3.53696363	    -62.50023573	     -1.09083490	     -5.91575151	    -13.65618365	      8.07403465	     -9.06555670	     -4.44886893	     13.22114452	    -20.05299274	     -0.34999075	     10.29571788	      7.15412697	     -5.22057380	    -24.75600897	     -4.85531138	     -1.50254038	     -7.00636278	    -10.55482412	      0.04397372	     37.20825115	     89.95437384	      0.00000000	      0.00000000	     -3.35305739	     10.49725944	      9.90667750	     13.99824508	     89.95437384	      0.00000000	      0.00000000
      0.57000000	     17.26024670	      1.97091796	     -2.29369913	     -0.03741376	      0.94564197	     -1.04901654	     -2.43347182	     -3.64617959	     -4.07087219	    -61.75687987	     -1.07786089	     -4.01880835	    -13.96469397	      7.79352665	    -10.07399986	     -4.06388231	     13.27900366	    -19.50156553	     -0.34036653	     10.63332784	      7.03336379	     -5.10102779	    -24.58718772	     -4.13724338	     -1.73903556	     -7.35275954	    -10.55149638	      0.16319687	     35.53321526	     89.95437384	      0.00000000	      0.00000000	     -2.21786954	     10.43533796	      9.61408869	     14.79712055	     89.95437384	      0.00000000	      0.00000000
      0.58000000	     17.44027493	      1.26335080	     -1.68012396	     -0.02365045	      0.94757243	     -1.04998138	     -1.56590984	     -2.46906810	     -4.09535271	    -60.11833321	     -1.04926286	     -1.73397076	    -14.77059307	      7.74348760	    -11.71983640	     -3.41885731	     12.08750603	    -18.58127817	     -0.32430448	     10.92458784	      7.04081348	     -5.03383737	    -24.86430684	     -3.12663552	     -2.21247407	     -7.40639343	    -10.34588551	     -0.01673541	     33.45374590	     89.95437384	      0.00000000	      0.00000000	     -1.24790419	     10.53538825	      9.07992476	     15.99678548	     89.95437384	      0.00000000	      0.00000000
      0.59000000	     17.67778930	      0.79129658	     -0.97650423	     -0.00972171	      0.94912783	     -1.05165826	     -0.78626583	     -1.93586201	     -4.80469562	    -58.26503812	     -1.01691675	     -0.47104211	    -15.44012788	      8.22860538	    -13.43077011	     -2.96269171	     11.30808945	    -17.59144596	     -0.30702865	     11.09898279	      7.26020360	     -4.92436803	    -25.17096629	     -2.24198608	     -2.73102343	     -7.78598702	    -10.29959901	     -0.07086368	     31.92781800	     89.95437384	      0.00000000	      0.00000000	     -0.26949878	     10.62453921	      8.26478792	     17.31381302	     89.95437384	      0.00000000	      0.00000000
      0.60000000	     17.72230974	      0.49098454	     -0.53726823	      0.00432961	      0.94994531	     -1.05303115	      0.24730056	     -1.61716317	     -5.25576592	    -56.37683091	     -0.98396132	      0.59433193	    -15.68955837	      8.66312576	    -14.88776713	     -2.65783749	     11.12486438	    -16.68975445	     -0.29129117	     11.23460140	      7.02241095	     -4.85616871	    -25.20713969	     -1.63258873	     -3.11491149	     -8.16610917	    -10.27133899	      0.03111378	     30.29798761	     89.95437384	      0.00000000	      0.00000000	      0.62666795	     10.73198403	      7.52077790	     18.66661824	     89.95437384	      0.00000000	      0.00000000
      0.61000000	     17.40932409	      0.27625293	     -0.07142253	      0.01788727	      0.94985543	     -1.05448845	      1.70289197	     -1.42319043	     -5.76783647	    -54.43370904	     -0.95004745	      1.54436828	    -15.76450484	      8.78182478	    -15.78786035	     -2.37842836	     11.08381327	    -16.00855779	     -0.27940204	     11.50654153	      6.56726465	     -4.80990567	    -24.92131111	     -1.09110385	     -3.61065832	     -8.45380991	    -10.16821019	     -0.25659510	     28.72082212	     89.95437384	      0.00000000	      0.00000000	      1.62882413	     10.78871425	      7.25214417	     19.95678950	     89.95437384	      0.00000000	      0.00000000
      0.62000000	     17.24007922	      0.15676084	      0.40398606	      0.03171394	      0.94956931	     -1.05589369	      2.86399041	     -1.38744266	     -6.44526309	    -52.26250774	     -0.91215284	      2.40766615	    -15.90607534	      8.87913088	    -16.82100691	     -2.19084317	     10.92798328	    -15.43560742	     -0.26940217	     11.86923922	      6.00925866	     -4.79279829	    -24.73277692	     -0.66316413	     -4.07300577	     -8.77779226	    -10.09250065	     -0.34932694	     27.01636899	     89.95437384	      0.00000000	      0.00000000	      2.56995471	     10.90830576	      6.78087572	     21.38274269	     89.95437384	      0.00000000	      0.00000000
      0.63000000	     17.25670529	      0.02443308	      1.14547820	      0.04557141	      0.94931015	     -1.05743597	      3.61067944	     -1.37463600	     -7.51941645	    -49.70888914	     -0.86758378	      2.97030942	    -16.06427504	      9.17564324	    -18.05358048	     -1.86204954	     10.71819045	    -14.84176181	     -0.25903761	     12.00608622	      5.41235031	     -4.79741353	    -24.76613745	     -0.14008173	     -4.81921360	     -9.09026812	     -9.94112690	     -0.73650482	     25.52583121	     89.95437384	      0.00000000	      0.00000000	      3.30876441	     11.18424061	      6.03640508	     23.25337879	     89.95437384	      0.00000000	      0.00000000
      0.64000000	     17.46297042	     -0.14783308	      1.90994800	      0.05955830	      0.94895541	     -1.05893696	      3.98006200	     -1.36060452	     -8.84439840	    -46.87716319	     -0.81816084	      3.48025762	    -16.13010092	     10.07879789	    -19.45206751	     -1.45582588	     10.41840516	    -14.33165419	     -0.25013455	     12.29751275	      5.29406492	     -4.87807618	    -24.97984060	      0.43714951	     -5.41528706	     -9.63085412	     -9.81167023	     -1.46586451	     24.42734700	     89.95437384	      0.00000000	      0.00000000	      4.11878784	     11.54820460	      4.73637755	     25.17772862	     89.95437384	      0.00000000	      0.00000000
      0.65000000	     16.76402318	      0.15706691	      2.00123272	      0.07309624	      0.94670344	     -1.06014245	      5.75628673	     -2.04310382	     -9.70024644	    -44.73098577	     -0.78070298	      4.08075001	    -15.72288544	      9.90932592	    -19.59872151	     -1.76653553	     10.86154295	    -14.36562910	     -0.25072753	     12.67291625	      5.07668293	     -4.79022354	    -24.25493513	      0.30321187	     -5.64262438	    -10.31467551	     -9.88019242	     -1.54708355	     23.59643566	     89.95437384	      0.00000000	      0.00000000	      5.10667269	     11.61694843	      4.56046342	     26.60129650	     89.95437384	      0.00000000	      0.00000000
